<svg width="314" height="58" viewBox="0 0 314 58" fill="none" xmlns="http://www.w3.org/2000/svg">
<path d="M73.961 33.9194C73.961 34.2233 73.882 34.5028 73.724 34.758C73.5782 35.0132 73.3534 35.238 73.0496 35.4325C72.7336 35.6269 72.3265 35.7849 71.8282 35.9064C71.3421 36.0158 70.7709 36.0705 70.1147 36.0705C69.5678 36.0705 69.0331 36.0158 68.5105 35.9064C68.0001 35.797 67.5444 35.6208 67.1433 35.3778C66.7423 35.1469 66.4141 34.843 66.1589 34.4663C65.9037 34.0774 65.7579 33.6156 65.7214 33.0809H60.8907C60.8907 33.883 61.0852 34.6851 61.474 35.4871C61.8751 36.2771 62.4584 36.9819 63.224 37.6017C63.9897 38.2337 64.9376 38.7441 66.0678 39.133C67.2102 39.5219 68.5227 39.7163 70.0053 39.7163C71.3542 39.7163 72.5756 39.5705 73.6694 39.2788C74.7631 38.975 75.6989 38.5557 76.4766 38.021C77.2423 37.4863 77.8317 36.8543 78.2449 36.1252C78.6702 35.3838 78.8829 34.5757 78.8829 33.7007C78.8829 32.7528 78.6702 31.9385 78.2449 31.258C77.8317 30.5653 77.2544 29.9759 76.5131 29.4897C75.7718 29.0158 74.8907 28.6269 73.8699 28.3231C72.849 28.0193 71.7431 27.7701 70.5522 27.5757C69.7258 27.4542 69.0452 27.3144 68.5105 27.1564C67.9758 26.9863 67.5565 26.7979 67.2527 26.5913C66.9367 26.3969 66.718 26.1781 66.5964 25.9351C66.4749 25.6798 66.4141 25.4064 66.4141 25.1147C66.4141 24.8231 66.481 24.5496 66.6147 24.2944C66.7605 24.0271 66.9671 23.7962 67.2345 23.6017C67.5261 23.383 67.9029 23.2128 68.3647 23.0913C68.8265 22.9698 69.3673 22.909 69.9871 22.909C70.7162 22.909 71.336 23.0002 71.8464 23.1825C72.369 23.3647 72.7822 23.6078 73.086 23.9116C73.3048 24.1425 73.4688 24.4038 73.5782 24.6955C73.6876 24.975 73.7423 25.2788 73.7423 25.6069H78.81C78.81 24.6955 78.6095 23.8509 78.2084 23.0731C77.8074 22.2953 77.2301 21.6208 76.4766 21.0496C75.711 20.4906 74.7813 20.0531 73.6876 19.7371C72.5938 19.409 71.3603 19.245 69.9871 19.245C68.6746 19.245 67.4957 19.409 66.4506 19.7371C65.4055 20.0653 64.5183 20.5088 63.7891 21.0679C63.06 21.6269 62.5009 22.2771 62.1121 23.0184C61.7232 23.7597 61.5287 24.5375 61.5287 25.3517C61.5287 26.1903 61.7171 26.9316 62.0938 27.5757C62.4827 28.2198 63.0174 28.7849 63.698 29.271C64.3786 29.7693 65.1928 30.1946 66.1407 30.547C67.1008 30.8873 68.1581 31.1729 69.3126 31.4038C70.224 31.5739 70.9775 31.7441 71.573 31.9142C72.1685 32.0844 72.6485 32.2667 73.0131 32.4611C73.3655 32.6677 73.6086 32.8864 73.7423 33.1173C73.8881 33.3483 73.961 33.6156 73.961 33.9194ZM97.2754 39.3335H101.869V19.6095H96.7832V33.4455C96.6252 33.7614 96.4369 34.047 96.2181 34.3022C95.9994 34.5575 95.7502 34.7762 95.4707 34.9585C95.1426 35.1651 94.7598 35.3231 94.3223 35.4325C93.8969 35.5418 93.4169 35.5965 92.8822 35.5965C92.2867 35.5965 91.7823 35.5236 91.3691 35.3778C90.956 35.2319 90.6217 34.9889 90.3665 34.6486C90.1113 34.3205 89.923 33.883 89.8014 33.3361C89.6921 32.7892 89.6374 32.1147 89.6374 31.3127V19.6095H84.5697V31.2762C84.5697 32.771 84.7337 34.0531 85.0619 35.1226C85.4021 36.1799 85.8761 37.0488 86.4837 37.7293C87.0914 38.422 87.8205 38.9264 88.6712 39.2424C89.5219 39.5583 90.4577 39.7163 91.4785 39.7163C92.5966 39.7163 93.6235 39.4368 94.5593 38.8778C95.5072 38.3187 96.3153 37.547 96.9837 36.5627L97.2754 39.3335ZM110.6 19.6095V23.7476H115.577V39.7892C115.577 40.4212 115.486 40.9437 115.303 41.3569C115.121 41.7823 114.878 42.1226 114.574 42.3778C114.258 42.633 113.881 42.8153 113.444 42.9246C113.019 43.034 112.563 43.0887 112.077 43.0887C111.955 43.0887 111.767 43.0826 111.512 43.0705C111.269 43.0705 111.013 43.0583 110.746 43.034C110.467 43.0219 110.193 42.9976 109.926 42.9611C109.671 42.9368 109.47 42.9064 109.324 42.87L109.069 46.9897C109.288 47.0384 109.506 47.0809 109.725 47.1174C109.956 47.1538 110.187 47.1842 110.418 47.2085C110.734 47.245 111.05 47.2693 111.366 47.2814C111.694 47.2936 112.016 47.2996 112.332 47.2996C113.657 47.2996 114.835 47.1538 115.868 46.8621C116.901 46.5705 117.776 46.1147 118.493 45.495C119.21 44.8873 119.757 44.1095 120.134 43.1616C120.511 42.2259 120.699 41.1017 120.699 39.7892V19.6095H110.6ZM115.23 14.5601C115.23 15.3378 115.492 15.9819 116.014 16.4923C116.549 17.0028 117.254 17.258 118.129 17.258C119.028 17.258 119.739 17.0088 120.262 16.5106C120.796 16.0002 121.064 15.35 121.064 14.5601C121.064 13.7701 120.796 13.126 120.262 12.6278C119.739 12.1173 119.028 11.8621 118.129 11.8621C117.23 11.8621 116.519 12.1234 115.996 12.646C115.486 13.1686 115.23 13.8066 115.23 14.5601ZM143.066 39.3335H148.206V39.0236C147.951 38.5253 147.757 37.9299 147.623 37.2371C147.489 36.5444 147.422 35.6694 147.422 34.6121V26.1538C147.422 25.0114 147.21 24.0088 146.784 23.146C146.359 22.271 145.77 21.5479 145.016 20.9767C144.263 20.4055 143.369 19.9741 142.336 19.6825C141.316 19.3908 140.21 19.245 139.019 19.245C137.694 19.245 136.515 19.4151 135.482 19.7554C134.461 20.0835 133.599 20.5331 132.894 21.1043C132.177 21.6755 131.63 22.3378 131.253 23.0913C130.889 23.8448 130.706 24.6408 130.706 25.4793H135.774C135.774 25.1269 135.823 24.8048 135.92 24.5132C136.029 24.2215 136.193 23.9724 136.412 23.7658C136.655 23.5349 136.971 23.3587 137.36 23.2371C137.749 23.1035 138.211 23.0366 138.745 23.0366C139.353 23.0366 139.882 23.1156 140.331 23.2736C140.793 23.4194 141.176 23.6321 141.48 23.9116C141.771 24.179 141.99 24.501 142.136 24.8778C142.282 25.2423 142.355 25.6555 142.355 26.1173V27.284H139.529C138.071 27.284 136.777 27.4177 135.646 27.6851C134.528 27.9403 133.586 28.317 132.821 28.8153C131.97 29.3621 131.332 30.0609 130.907 30.9116C130.481 31.7502 130.269 32.7163 130.269 33.8101C130.269 34.6608 130.439 35.4507 130.779 36.1799C131.119 36.8969 131.593 37.5167 132.201 38.0392C132.809 38.5618 133.532 38.9689 134.37 39.2606C135.221 39.5522 136.151 39.6981 137.159 39.6981C137.779 39.6981 138.356 39.6373 138.891 39.5158C139.426 39.4064 139.918 39.2484 140.368 39.0418C140.805 38.8474 141.206 38.6165 141.571 38.3491C141.935 38.0818 142.257 37.7962 142.537 37.4924C142.598 37.8448 142.671 38.179 142.756 38.495C142.841 38.8109 142.944 39.0904 143.066 39.3335ZM138.235 35.7788C137.761 35.7788 137.342 35.7241 136.977 35.6147C136.625 35.4932 136.327 35.3352 136.084 35.1408C135.841 34.9342 135.652 34.6851 135.519 34.3934C135.397 34.0896 135.336 33.7614 135.336 33.409C135.336 32.9594 135.422 32.5462 135.592 32.1694C135.762 31.7805 136.023 31.4463 136.376 31.1668C136.728 30.8995 137.184 30.6929 137.743 30.547C138.302 30.3891 138.976 30.3101 139.766 30.3101H142.355V33.7007C142.209 33.9559 142.008 34.2111 141.753 34.4663C141.498 34.7094 141.194 34.9281 140.842 35.1226C140.489 35.317 140.094 35.475 139.657 35.5965C139.219 35.718 138.745 35.7788 138.235 35.7788ZM157.028 47.2996C158.049 47.2996 158.93 47.1295 159.672 46.7892C160.425 46.4489 161.063 46.0297 161.586 45.5314C162.108 45.0331 162.54 44.4924 162.88 43.909C163.232 43.3257 163.518 42.7849 163.737 42.2866L173.745 19.6095H168.148L163.646 31.2033L162.898 33.172L162.351 31.1668L157.831 19.6095H152.289L160.638 38.495L159.471 40.6642C159.325 40.9316 159.198 41.1382 159.088 41.284C158.991 41.4299 158.833 41.6486 158.614 41.9403C158.396 42.2319 158.128 42.4993 157.812 42.7424C157.508 42.9976 157.156 43.1252 156.755 43.1252C156.561 43.1252 156.299 43.113 155.971 43.0887C155.655 43.0766 155.394 43.0705 155.187 43.0705L154.567 46.9351C155.005 47.0566 155.4 47.1477 155.752 47.2085C156.117 47.2693 156.542 47.2996 157.028 47.2996Z" fill="#151C3A"/>
<path d="M182.348 29.5991H186.304C187.75 29.5991 189.056 29.3925 190.223 28.9793C191.39 28.5661 192.386 27.9889 193.213 27.2476C194.027 26.5184 194.653 25.6495 195.09 24.6408C195.54 23.6321 195.765 22.5323 195.765 21.3413C195.765 20.0653 195.54 18.9047 195.09 17.8595C194.653 16.8144 194.027 15.9151 193.213 15.1616C192.386 14.4203 191.39 13.843 190.223 13.4298C189.056 13.0045 187.75 12.7918 186.304 12.7918H177.226V39.3335H182.348V29.5991ZM182.348 25.4429V16.9481H186.304C187.033 16.9481 187.665 17.0635 188.2 17.2944C188.734 17.5253 189.184 17.8413 189.549 18.2423C189.901 18.6434 190.162 19.1113 190.332 19.646C190.515 20.1807 190.606 20.758 190.606 21.3778C190.606 21.9125 190.515 22.429 190.332 22.9272C190.162 23.4134 189.901 23.8448 189.549 24.2215C189.184 24.5983 188.734 24.896 188.2 25.1147C187.665 25.3335 187.033 25.4429 186.304 25.4429H182.348ZM212.571 39.3335H217.712V39.0236C217.457 38.5253 217.262 37.9299 217.129 37.2371C216.995 36.5444 216.928 35.6694 216.928 34.6121V26.1538C216.928 25.0114 216.715 24.0088 216.29 23.146C215.865 22.271 215.275 21.5479 214.522 20.9767C213.768 20.4055 212.875 19.9741 211.842 19.6825C210.821 19.3908 209.715 19.245 208.524 19.245C207.2 19.245 206.021 19.4151 204.988 19.7554C203.967 20.0835 203.104 20.5331 202.399 21.1043C201.682 21.6755 201.135 22.3378 200.759 23.0913C200.394 23.8448 200.212 24.6408 200.212 25.4793H205.28C205.28 25.1269 205.328 24.8048 205.425 24.5132C205.535 24.2215 205.699 23.9724 205.918 23.7658C206.161 23.5349 206.477 23.3587 206.866 23.2371C207.254 23.1035 207.716 23.0366 208.251 23.0366C208.859 23.0366 209.387 23.1156 209.837 23.2736C210.299 23.4194 210.681 23.6321 210.985 23.9116C211.277 24.179 211.496 24.501 211.642 24.8778C211.787 25.2423 211.86 25.6555 211.86 26.1173V27.284H209.035C207.576 27.284 206.282 27.4177 205.152 27.6851C204.034 27.9403 203.092 28.317 202.326 28.8153C201.476 29.3621 200.838 30.0609 200.412 30.9116C199.987 31.7502 199.774 32.7163 199.774 33.8101C199.774 34.6608 199.945 35.4507 200.285 36.1799C200.625 36.8969 201.099 37.5167 201.707 38.0392C202.314 38.5618 203.037 38.9689 203.876 39.2606C204.727 39.5522 205.656 39.6981 206.665 39.6981C207.285 39.6981 207.862 39.6373 208.397 39.5158C208.931 39.4064 209.424 39.2484 209.873 39.0418C210.311 38.8474 210.712 38.6165 211.076 38.3491C211.441 38.0818 211.763 37.7962 212.043 37.4924C212.103 37.8448 212.176 38.179 212.261 38.495C212.346 38.8109 212.45 39.0904 212.571 39.3335ZM207.741 35.7788C207.267 35.7788 206.847 35.7241 206.483 35.6147C206.13 35.4932 205.833 35.3352 205.589 35.1408C205.346 34.9342 205.158 34.6851 205.024 34.3934C204.903 34.0896 204.842 33.7614 204.842 33.409C204.842 32.9594 204.927 32.5462 205.097 32.1694C205.267 31.7805 205.529 31.4463 205.881 31.1668C206.234 30.8995 206.689 30.6929 207.248 30.547C207.807 30.3891 208.482 30.3101 209.272 30.3101H211.86V33.7007C211.714 33.9559 211.514 34.2111 211.259 34.4663C211.004 34.7094 210.7 34.9281 210.347 35.1226C209.995 35.317 209.6 35.475 209.162 35.5965C208.725 35.718 208.251 35.7788 207.741 35.7788ZM237.581 19.245C236.256 19.245 235.035 19.567 233.917 20.2111C232.799 20.843 231.839 21.718 231.037 22.8361L231 22.3986L230.8 19.6095H226.078V39.3335H231.146V27.4845C231.377 26.9255 231.669 26.4394 232.021 26.0262C232.373 25.613 232.799 25.2727 233.297 25.0054C233.71 24.7745 234.178 24.6043 234.701 24.495C235.235 24.3734 235.831 24.3127 236.487 24.3127C237.119 24.3127 237.781 24.3552 238.474 24.4403C239.179 24.5132 239.866 24.6286 240.534 24.7866L241.281 19.7371C240.88 19.6156 240.352 19.5062 239.696 19.409C239.051 19.2996 238.347 19.245 237.581 19.245ZM254.005 31.1851L259.601 39.3335H265.817L257.341 27.8309L264.778 19.6095H258.69L253.239 25.5887L251.708 27.3387V11.3335H246.64V39.3335H251.708V33.3179L254.005 31.1851ZM274.822 22.3257V11.3335H269.754V39.3335H274.822V25.0965C275.016 24.8413 275.229 24.6104 275.46 24.4038C275.703 24.1972 275.97 24.021 276.262 23.8752C276.578 23.705 276.93 23.5774 277.319 23.4923C277.708 23.4073 278.127 23.3647 278.577 23.3647C279.16 23.3647 279.683 23.4437 280.145 23.6017C280.606 23.7476 281.001 23.9785 281.329 24.2944C281.658 24.6104 281.907 25.0236 282.077 25.534C282.259 26.0444 282.35 26.6521 282.35 27.3569V39.3335H287.418V27.3934C287.418 25.9472 287.242 24.7137 286.889 23.6929C286.549 22.6599 286.069 21.8153 285.449 21.159C284.829 20.5028 284.088 20.0227 283.225 19.7189C282.362 19.4029 281.415 19.245 280.382 19.245C279.677 19.245 279.008 19.3483 278.376 19.5548C277.744 19.7614 277.167 20.0531 276.645 20.4298C276.304 20.6729 275.976 20.9585 275.66 21.2866C275.356 21.6026 275.077 21.9489 274.822 22.3257ZM302.493 39.6981C304.401 39.6981 306.054 39.3274 307.451 38.5861C308.849 37.8448 309.87 37.0184 310.514 36.1069L307.98 33.3726C307.396 34.126 306.637 34.6911 305.701 35.0679C304.765 35.4446 303.799 35.633 302.803 35.633C302.098 35.633 301.448 35.5236 300.852 35.3048C300.257 35.0861 299.728 34.7762 299.266 34.3752C298.817 33.9863 298.458 33.5548 298.191 33.0809C297.923 32.5948 297.705 31.9568 297.534 31.1668V31.1121H310.915V28.9611C310.915 27.5149 310.714 26.1963 310.313 25.0054C309.912 23.8022 309.329 22.7753 308.563 21.9246C307.785 21.0739 306.837 20.4177 305.719 19.9559C304.613 19.4819 303.35 19.245 301.928 19.245C300.554 19.245 299.284 19.4941 298.118 19.9923C296.951 20.4906 295.942 21.1894 295.092 22.0887C294.241 22.988 293.579 24.0635 293.105 25.3153C292.631 26.5548 292.394 27.9281 292.394 29.4351V30.1642C292.394 31.4889 292.631 32.7345 293.105 33.9012C293.591 35.0557 294.278 36.0583 295.165 36.909C296.052 37.7719 297.115 38.4524 298.355 38.9507C299.594 39.4489 300.974 39.6981 302.493 39.6981ZM301.891 23.3465C302.535 23.3465 303.1 23.4498 303.587 23.6564C304.085 23.8509 304.504 24.1182 304.844 24.4585C305.185 24.8109 305.452 25.2241 305.646 25.6981C305.841 26.172 305.938 26.6764 305.938 27.2111V27.6121H297.626C297.747 26.968 297.929 26.3847 298.173 25.8621C298.416 25.3396 298.719 24.8899 299.084 24.5132C299.436 24.1364 299.85 23.8509 300.324 23.6564C300.798 23.4498 301.32 23.3465 301.891 23.3465Z" fill="#7510F6"/>
<path d="M10.8257 47.6433L36.1575 36.6857C38.0948 35.8454 38.9906 33.5817 38.1504 31.6443C37.3102 29.7 35.0534 28.8042 33.109 29.6444L23.0124 34.0122C17.9989 36.1857 12.1451 33.8664 9.97854 28.8528C7.80507 23.8323 10.1244 17.9855 15.1379 15.812L34.8867 7.27085C32.2688 6.2848 29.4357 5.74316 26.4775 5.74316C13.2908 5.74316 2.604 16.43 2.604 29.6167C2.604 36.8107 5.7913 43.2686 10.8257 47.6433Z" fill="url(#paint0_linear_232_7)"/>
<path d="M41.4696 11.0483L17.5544 21.3949C15.617 22.2351 14.7213 24.4919 15.5615 26.4363C16.3948 28.3736 18.6585 29.2694 20.6028 28.4292L30.6925 24.0614C35.713 21.8949 41.5599 24.2072 43.7333 29.2278C45.9068 34.2413 43.5875 40.0951 38.5739 42.2617L17.0753 51.5666C19.964 52.8027 23.1374 53.4832 26.4775 53.4832C39.6572 53.4832 50.344 42.7964 50.344 29.6166C50.344 22.1101 46.8859 15.4231 41.4696 11.0483Z" fill="url(#paint1_linear_232_7)"/>
<defs>
<linearGradient id="paint0_linear_232_7" x1="20.535" y1="5.74316" x2="20.535" y2="47.6433" gradientUnits="userSpaceOnUse">
<stop stop-color="#924DEA"/>
<stop offset="1" stop-color="#7F00FF"/>
</linearGradient>
<linearGradient id="paint1_linear_232_7" x1="32.7949" y1="11.0483" x2="32.7949" y2="53.4832" gradientUnits="userSpaceOnUse">
<stop stop-color="#924DEA"/>
<stop offset="1" stop-color="#7F00FF"/>
</linearGradient>
</defs>
</svg>
